<svg xmlns="http://www.w3.org/2000/svg" width="410" height="404" viewBox="0 0 410 404" fill="none">
  <g clip-path="url(#clip0_80_1645)">
    <path d="M399.641 59.5246L215.643 388.545C211.844 395.338 202.084 395.378 198.228 388.618L9.22627 59.5563C5.07131 52.1896 11.8664 43.2666 20.0433 45.2969L205.223 92.7154C206.398 93.0088 207.619 93.0087 208.794 92.7153L388.119 46.3732C396.26 44.2913 403.059 53.1434 398.863 60.5399Z" fill="#FFEA83"/>
    <path d="M292.965 1.5744L156.801 31.4932C153.563 32.2105 150.966 34.6655 150.18 37.9011L107.634 217.214C106.759 221.009 109.853 224.535 113.729 223.894L170.18 214.465C174.269 213.789 177.879 217.259 177.145 221.328L164.573 290.254C163.802 294.564 167.768 298.204 171.94 297.03L210.349 286.504C214.536 285.326 218.508 288.985 217.715 293.307L201.398 382.384C200.278 388.461 208.702 391.716 212.044 386.418L213.987 383.353L404.979 71.0212C408.043 66.0044 404.015 59.4893 398.164 60.7702L292.965 1.5744Z" fill="#FFC95B"/>
  </g>
  <defs>
    <clipPath id="clip0_80_1645">
      <rect width="410" height="404" fill="white"/>
    </clipPath>
  </defs>
</svg>
